{"title":"Class.of.1984.(1982).Special.Edition.DVDRip.X264.AC3.DrunkinRG","uid":11408654,"size":1079810615,"categoryP":"video","categoryS":"movies","magnet":"?xt=urn:btih:444c558573fd417f76d7e157cecc9411463ed6b1&amp;dn=Class.of.1984.%281982%29.Special.Edition.DVDRip.X264.AC3.DrunkinRG&amp;tr=udp%3A%2F%2Ftracker.openbittorrent.com%3A80&amp;tr=udp%3A%2F%2Fopen.demonii.com%3A1337&amp;tr=udp%3A%2F%2Ftracker.coppersurfer.tk%3A6969&amp;tr=udp%3A%2F%2Fexodus.desync.com%3A6969","seeders":1,"leechers":0,"uploader":"TvTeam","files":4,"time":1415502889,"description":" &lt;a href=&quot;http://www.torrenting.com&quot; rel=&quot;nofollow&quot; target=&quot;_NEW&quot;&gt;http://www.torrenting.com&lt;/a&gt;\n\nSign up is OPEN - for time being. Come and have fun.\n\n\n------------------------------------------------------------------------[IMG]http://i.imgur.com/Sq3Yp3H.jpg[/IMG]\n\n\nIMDB: http://www.imdb.com/title/tt0083739/\n\nAndy is a new teacher and an inner city high school that is like nothing he has ever seen before. The students have to go through a metal detector when they go through the front door and\n\n\nGeneral\nUnique ID                                : 204180491483409238162954548888718598325 (0x999BBB7570F0B434B534D76DBFD8E0B5)\nComplete name                            : C:UsersadminDocumentsClass.of.1984.(1982).Special.Edition.DVDRip.X264.AC3.DrunkinRGClass.of.1984.(1982).Special.Edition.DVDRip.X264.AC3.DrunkinRG.mkv\nFormat                                   : Matroska\nFormat version                           : Version 2\nFile size                                : 1 014 MiB\nDuration                                 : 1h 37mn\nOverall bit rate                         : 1 447 Kbps\nEncoded date                             : UTC 2014-11-08 22:44:45\nWriting application                      : mkvmerge v5.7.0 ('The Whirlwind') built on Jul  8 2012 20:08:51\nWriting library                          : libebml v1.2.3 + libmatroska v1.3.0\n\nVideo\nID                                       : 1\nFormat                                   : AVC\nFormat/Info                              : Advanced Video Codec\nFormat profile                           : &lt;a class=&quot;__cf_email__&quot; href=&quot;/cdn-cgi/l/email-protection&quot; data-cfemail=&quot;f2ba9b959ab2bec1dcc3&quot;&gt;[email&amp;#160;protected]&lt;/a&gt;&lt;script cf-hash='f9e31' type=&quot;text/javascript&quot;&gt;\n/* &lt;![CDATA[ */!function(){try{var t=&quot;currentScript&quot;in document?document.currentScript:function(){for(var t=document.getElementsByTagName(&quot;script&quot;),e=t.length;e--;)if(t[e].getAttribute(&quot;cf-hash&quot;))return t[e]}();if(t&amp;&amp;t.previousSibling){var e,r,n,i,c=t.previousSibling,a=c.getAttribute(&quot;data-cfemail&quot;);if(a){for(e=&quot;&quot;,r=parseInt(a.substr(0,2),16),n=2;a.length-n;n+=2)i=parseInt(a.substr(n,2),16)^r,e+=String.fromCharCode(i);e=document.createTextNode(e),c.parentNode.replaceChild(e,c)}}}catch(u){}}();/* ]]&gt; */&lt;/script&gt;\nFormat settings, CABAC                   : Yes\nFormat settings, ReFrames                : 6 frames\nMuxing mode                              : Header stripping\nCodec ID                                 : V_MPEG4/ISO/AVC\nDuration                                 : 1h 37mn\nBit rate                                 : 999 Kbps\nWidth                                    : 720 pixels\nHeight                                   : 384 pixels\nDisplay aspect ratio                     : 1.85:1\nFrame rate mode                          : Constant\nFrame rate                               : 23.976 fps\nColor space                              : YUV\nChroma subsampling                       : 4:2:0\nBit depth                                : 8 bits\nScan type                                : Progressive\nBits/(Pixel*Frame)                       : 0.151\nStream size                              : 680 MiB (67%)\nWriting library                          : x264 core 142 r2431 ac76440\nEncoding settings                        : cabac=1 / ref=6 / deblock=1:-1:-1 / analyse=0x3:0x113 / me=umh / subme=10 / psy=1 / psy_rd=1.00:0.00 / mixed_ref=1 / me_range=64 / chroma_me=1 / trellis=2 / 8x8dct=1 / cqm=0 / deadzone=21,11 / fast_pskip=0 / chroma_qp_offset=-2 / threads=6 / lookahead_threads=1 / sliced_threads=0 / nr=0 / decimate=0 / interlaced=0 / bluray_compat=0 / constrained_intra=0 / bframes=6 / b_pyramid=0 / b_adapt=2 / b_bias=0 / direct=3 / weightb=1 / open_gop=0 / weightp=2 / keyint=240 / keyint_min=23 / scenecut=40 / intra_refresh=0 / rc_lookahead=40 / rc=2pass / mbtree=1 / bitrate=999 / ratetol=1.0 / qcomp=0.60 / qpmin=10 / qpmax=51 / qpstep=4 / cplxblur=20.0 / qblur=0.5 / vbv_maxrate=16800 / vbv_bufsize=16800 / nal_hrd=none / filler=0 / ip_ratio=1.40 / aq=1:1.00\nLanguage                                 : English\nDefault                                  : Yes\nForced                                   : No\n\nAudio\nID                                       : 2\nFormat                                   : AC-3\nFormat/Info                              : Audio Coding 3\nMode extension                           : CM (complete main)\nFormat settings, Endianness              : Big\nMuxing mode                              : Header stripping\nCodec ID                                 : A_AC3\nDuration                                 : 1h 37mn\nBit rate mode                            : Constant\nBit rate                                 : 448 Kbps\nChannel(s)                               : 6 channels\nChannel positions                        : Front: L C R, Side: L R, LFE\nSampling rate                            : 48.0 KHz\nBit depth                                : 16 bits\nCompression mode                         : Lossy\nDelay relative to video                  : 12ms\nStream size                              : 314 MiB (31%)\nDefault                                  : Yes\nForced                                   : No\n\n\nSCREENS: \n\n[IMG]http://i.imgur.com/vJb05a6.jpg[/IMG]\n[IMG]http://i.imgur.com/v62kHrD.jpg[/IMG]\n[IMG]http://i.imgur.com/yExcLzi.jpg[/IMG]","torrent":{"xt":"urn:btih:444c558573fd417f76d7e157cecc9411463ed6b1","amp;dn":"Class.of.1984.%281982%29.Special.Edition.DVDRip.X264.AC3.DrunkinRG","amp;tr":["udp%3A%2F%2Ftracker.openbittorrent.com%3A80","udp%3A%2F%2Fopen.demonii.com%3A1337","udp%3A%2F%2Ftracker.coppersurfer.tk%3A6969","udp%3A%2F%2Fexodus.desync.com%3A6969"],"infoHash":"444c558573fd417f76d7e157cecc9411463ed6b1","infoHashBuffer":{"type":"Buffer","data":[68,76,85,133,115,253,65,127,118,215,225,87,206,204,148,17,70,62,214,177]},"announce":[],"urlList":[]}}